<?xml version="1.0" encoding="UTF-8"?>
<svg width="66px" height="100px" viewBox="0 0 66 100" version="1.1" xmlns="http://www.w3.org/2000/svg" xmlns:xlink="http://www.w3.org/1999/xlink">
    <!-- Generator: Sketch 52.6 (67491) - http://www.bohemiancoding.com/sketch -->
    <title>noun_Fist_235057</title>
    <desc>Created with Sketch.</desc>
    <g id="Symbols" stroke="none" stroke-width="1" fill="none" fill-rule="evenodd">
        <g id="fist" fill="#000000">
            <g id="noun_Fist_235057">
                <path d="M35.479,39.365 C35.311,39.814 35.202,40.275 35.155,40.744 C35.102,41.262 35.116,41.783 35.212,42.299 C35.27,42.608 35.343,42.916 35.453,43.217 C35.968,44.609 36.992,45.716 38.341,46.336 C39.075,46.674 39.855,46.844 40.656,46.844 C41.652,46.844 42.605,46.565 43.437,46.08 C43.887,45.818 44.3,45.496 44.664,45.116 C44.989,44.777 45.27,44.391 45.503,43.971 C45.57,43.85 45.646,43.734 45.704,43.606 C45.704,43.606 56.782,19.508 56.806,19.459 C56.829,19.407 57.14,18.485 57.206,18.114 C57.641,15.686 56.423,13.173 54.079,12.094 C53.347,11.756 52.567,11.586 51.766,11.586 C50.078,11.586 48.508,12.366 47.466,13.638 C47.173,13.997 46.915,14.388 46.718,14.821 C46.719,14.817 46.72,14.813 46.722,14.81 L46.716,14.822 C46.715,14.823 46.714,14.826 46.712,14.828 L35.616,38.97 C35.558,39.099 35.527,39.233 35.479,39.365 Z" id="Path"></path>
                <path d="M40.476,12.83 C40.711,13.066 40.864,13.374 40.976,13.711 C41.239,14.51 41.195,15.533 40.977,16.57 C40.865,17.099 40.715,17.624 40.535,18.121 C40.467,18.312 40.398,18.505 40.321,18.685 C40.208,18.96 40.059,19.28 39.887,19.618 C38.383,22.593 34.513,27.593 25.424,27.903 C25.419,27.903 25.412,27.904 25.407,27.904 L21.62,35.79 C23.986,36.349 28.197,37.671 31.847,40.52 L44.192,13.661 C44.394,13.223 44.512,12.772 44.593,12.317 C45.025,9.886 43.81,7.372 41.466,6.295 C40.732,5.959 39.952,5.787 39.153,5.787 C37.465,5.787 35.896,6.566 34.855,7.839 C34.559,8.198 34.301,8.59 34.101,9.023 C34.103,9.019 34.103,9.017 34.107,9.013 L34.101,9.023 L34.098,9.03 L32.538,12.425 L40.07,12.425 L40.476,12.83 Z" id="Path"></path>
                <path d="M25.861,12.424 L27.213,12.424 L29.481,12.424 L31.568,7.875 C31.768,7.437 31.887,6.985 31.967,6.531 C32.4,4.102 31.185,1.588 28.841,0.51 C28.105,0.174 27.327,0 26.527,0 C24.839,0 23.269,0.781 22.228,2.053 C21.935,2.412 21.676,2.804 21.477,3.238 C21.477,3.24 21.473,3.242 21.473,3.244 L17.26,12.424 L21.874,12.424 L25.861,12.424 Z" id="Path"></path>
                <polygon id="Path" points="31.578 7.861 31.581 7.854 31.578 7.861 31.573 7.874"></polygon>
                <polygon id="Path" points="55.551 28.84 55.55 28.84 55.55 28.841"></polygon>
                <polygon id="Path" points="44.949 45.252 44.952 45.248 44.95 45.249"></polygon>
                <polygon id="Path" points="44.954 45.241 44.952 45.245 44.952 45.246"></polygon>
                <path d="M65.18,33.276 C65.18,32.652 64.832,31.361 64.818,31.349 C64.033,29.234 62.013,27.721 59.627,27.721 C59.126,27.721 58.648,27.809 58.186,27.934 C57.383,28.15 56.658,28.541 56.041,29.065 C55.317,29.682 54.759,30.47 54.426,31.38 C54.422,31.392 54.42,31.406 54.414,31.418 L47.475,46.408 L47.477,46.408 C47.272,46.855 47.169,47.321 47.145,47.785 C47.137,47.951 47.145,48.115 47.158,48.277 C47.264,49.582 48.046,50.795 49.318,51.38 C49.922,51.659 50.573,51.742 51.208,51.677 C52.036,51.591 52.835,51.245 53.45,50.681 C53.745,50.41 53.989,50.081 54.181,49.719 L57.786,41.932 L60.307,43.095 L60.557,42.552 L56.815,50.695 L56.809,50.707 C56.747,50.842 56.672,50.966 56.598,51.093 C56.443,51.371 56.271,51.641 56.08,51.892 C55.689,52.411 55.22,52.859 54.701,53.235 C53.695,53.968 52.488,54.418 51.207,54.482 C51.096,54.489 50.989,54.503 50.88,54.503 L50.879,54.503 C49.936,54.503 49.02,54.301 48.156,53.905 C46.864,53.309 45.872,52.339 45.22,51.185 C44.906,50.628 44.683,50.028 44.542,49.404 C44.489,49.171 44.446,48.938 44.419,48.699 C43.989,48.919 43.547,49.111 43.082,49.254 C42.306,49.492 41.489,49.622 40.657,49.622 C40.657,49.622 40.657,49.622 40.656,49.622 C39.691,49.622 39.046,49.45 38.145,49.125 C38.657,50.801 38.976,52.653 38.976,54.755 L38.976,65.281 L36.199,65.281 L36.199,54.755 C36.199,52.234 35.411,50.099 34.601,48.277 C30.807,39.732 19.972,38.254 19.419,38.185 L17.505,37.945 L23.651,25.143 L24.526,25.143 C24.758,25.143 24.956,25.114 25.178,25.108 C25.716,25.092 26.252,25.075 26.746,25.024 C32.043,24.475 34.949,22.006 36.485,19.889 C36.618,19.706 36.734,19.522 36.851,19.341 C37.123,18.915 37.35,18.499 37.541,18.093 C37.76,17.63 37.93,17.187 38.058,16.78 C38.253,16.152 38.356,15.606 38.386,15.202 L15.408,15.202 C12.658,15.202 10.254,16.66 8.908,18.842 C8.594,19.352 8.336,19.898 8.146,20.477 L0.928,35.957 L0.557,36.753 C0.201,37.635 0,38.597 0,39.608 C0,40.99 0.373,42.283 1.014,43.402 L1.795,44.522 L19.533,68.013 L19.533,99.997 L52.864,99.997 L52.864,100 L55.641,100 L55.643,76.391 L64.464,58.434 C64.588,58.211 64.707,57.988 64.801,57.747 C65.033,57.153 65.168,56.512 65.179,55.839 C65.181,55.805 65.18,33.276 65.18,33.276 Z" id="Path"></path>
            </g>
        </g>
    </g>
</svg>